<svg width="245" height="61" viewBox="0 0 245 61" fill="none" xmlns="http://www.w3.org/2000/svg">
<path d="M222.765 60.489H193.461V0.589844H222.765V60.489Z" fill="#0C1413"/>
<path d="M30.2546 60.489C46.9637 60.489 60.5091 46.9481 60.5091 30.2445C60.5091 13.5409 46.9637 0 30.2546 0C13.5454 0 0 13.5409 0 30.2445C0 46.9481 13.5454 60.489 30.2546 60.489Z" fill="#0C1413"/>
<path d="M124.802 0.589844V60.489H64.8828V0.589844C72.6145 1.22893 90.4547 11.7547 95.3559 19.8661C100.164 12.645 116.677 1.99911 124.796 0.589844H124.802Z" fill="#0C1413"/>
<path d="M189.091 0.589844V60.4944C164.896 60.4944 152.503 45.0144 148.7 41.2126C148.509 41.2126 141.914 58.6209 129.172 60.4944V0.589844C153.361 0.589844 165.754 16.0699 169.562 19.8716C169.759 19.8716 176.354 2.46886 189.091 0.589844Z" fill="#0C1413"/>
<circle cx="236.5" cy="8.5" r="7.75" stroke="#0C1413" stroke-width="1.5"/>
<mask id="path-6-outside-1_1356_54" maskUnits="userSpaceOnUse" x="232" y="3" width="9" height="11" fill="black">
<rect fill="white" x="232" y="3" width="9" height="11"/>
<path d="M236.688 13.117C234.348 13.117 232.955 11.4673 232.955 8.671C232.955 5.8747 234.348 4.225 236.688 4.225C238.583 4.225 239.87 5.4184 240.186 7.4308H239.215C238.934 5.9449 237.986 5.0791 236.688 5.0791C234.991 5.0791 233.997 6.4129 233.997 8.671C233.997 10.9291 234.991 12.2629 236.688 12.2629C237.998 12.2629 238.934 11.362 239.215 9.8293H240.186C239.87 11.8885 238.571 13.117 236.688 13.117Z"/>
</mask>
<path d="M236.688 13.117C234.348 13.117 232.955 11.4673 232.955 8.671C232.955 5.8747 234.348 4.225 236.688 4.225C238.583 4.225 239.87 5.4184 240.186 7.4308H239.215C238.934 5.9449 237.986 5.0791 236.688 5.0791C234.991 5.0791 233.997 6.4129 233.997 8.671C233.997 10.9291 234.991 12.2629 236.688 12.2629C237.998 12.2629 238.934 11.362 239.215 9.8293H240.186C239.87 11.8885 238.571 13.117 236.688 13.117Z" fill="#0C1413"/>
<path d="M240.186 7.4308V7.7808H240.595L240.532 7.37652L240.186 7.4308ZM239.215 7.4308L238.871 7.49579L238.925 7.7808H239.215V7.4308ZM239.215 9.8293V9.4793H238.923L238.871 9.76623L239.215 9.8293ZM240.186 9.8293L240.532 9.88237L240.594 9.4793H240.186V9.8293ZM236.688 12.767C235.606 12.767 234.777 12.3894 234.212 11.7174C233.64 11.0373 233.305 10.0153 233.305 8.671H232.605C232.605 10.123 232.967 11.324 233.676 12.1678C234.392 13.0198 235.429 13.467 236.688 13.467V12.767ZM233.305 8.671C233.305 7.32673 233.64 6.30466 234.212 5.62461C234.777 4.95261 235.606 4.575 236.688 4.575V3.875C235.429 3.875 234.392 4.32223 233.676 5.17416C232.967 6.01804 232.605 7.21897 232.605 8.671H233.305ZM236.688 4.575C237.559 4.575 238.266 4.84741 238.792 5.33091C239.321 5.81661 239.692 6.5399 239.84 7.48508L240.532 7.37652C240.364 6.3093 239.934 5.42969 239.266 4.81559C238.596 4.19929 237.712 3.875 236.688 3.875V4.575ZM240.186 7.0808H239.215V7.7808H240.186V7.0808ZM239.559 7.36581C239.408 6.56534 239.071 5.90416 238.571 5.44092C238.067 4.97489 237.419 4.7291 236.688 4.7291V5.4291C237.255 5.4291 237.73 5.61621 238.095 5.95455C238.464 6.29569 238.741 6.81036 238.871 7.49579L239.559 7.36581ZM236.688 4.7291C235.737 4.7291 234.957 5.10874 234.426 5.81858C233.904 6.51532 233.647 7.49675 233.647 8.671H234.347C234.347 7.58715 234.586 6.77263 234.986 6.23794C235.377 5.71636 235.942 5.4291 236.688 5.4291V4.7291ZM233.647 8.671C233.647 9.84525 233.904 10.8267 234.426 11.5234C234.957 12.2333 235.737 12.6129 236.688 12.6129V11.9129C235.942 11.9129 235.377 11.6256 234.986 11.1041C234.586 10.5694 234.347 9.75485 234.347 8.671H233.647ZM236.688 12.6129C237.429 12.6129 238.079 12.3559 238.58 11.873C239.078 11.394 239.409 10.7129 239.559 9.89237L238.871 9.76623C238.74 10.4784 238.463 11.0141 238.095 11.3687C237.73 11.7195 237.257 11.9129 236.688 11.9129V12.6129ZM239.215 10.1793H240.186V9.4793H239.215V10.1793ZM239.84 9.77623C239.691 10.7459 239.316 11.4904 238.785 11.9905C238.257 12.4879 237.549 12.767 236.688 12.767V13.467C237.71 13.467 238.594 13.1318 239.265 12.5002C239.933 11.8713 240.365 10.9719 240.532 9.88237L239.84 9.77623Z" fill="#0C1413" mask="url(#path-6-outside-1_1356_54)"/>
</svg>
